# xmcd
#
# Track frame offsets:
#	150
#	15458
#	34343
#	51277
#	68015
#	85572
#	98725
#	116121
#	134001
#	151391
#	170135
#	186930
#	205858
#	229465
#	245214
#	259346
#
# Disc length: 3673 seconds
#
# Revision: 0
# Processed by: cddbd v1.5.2PL0 Copyright (c) Steve Scherf et al.
# Submitted via: dBpowerAMP V4.0
#
DISCID=ea0e5710
DTITLE=nombre - cosa
DYEAR=1122
DGENRE=AlternRock
TTITLE0=uno
TTITLE1=dos
TTITLE2=tres
TTITLE3=cuatro
TTITLE4=cinco
TTITLE5=seis
TTITLE6=siete
TTITLE7=ocho
TTITLE8=nueve
TTITLE9=diez
TTITLE10=once
TTITLE11=doce
TTITLE12=trece
TTITLE13=catorce
TTITLE14=quince
TTITLE15=dieciseis
EXTD=una cosa
EXTT0=
EXTT1=
EXTT2=
EXTT3=
EXTT4=
EXTT5=
EXTT6=
EXTT7=
EXTT8=
EXTT9=
EXTT10=
EXTT11=
EXTT12=
EXTT13=
EXTT14=
EXTT15=
PLAYORDER=
